PathFileType	4	(X/Y/Z)	/Users/itak/Documents/Research/Walk-IL/dataset/trc/00168_00008.trc
DataRate	CameraRate	NumFrames	NumMarkers	Units	OrigDataRate	OrigDataStartFrame	OrigNumFrames
100.000000	100.000000	4	53	mm	100.000000	88	709
Frame#	Time	RPSI			LPSI			L3			STRN			T10			C7			CLAV			RBAK			LBAK			LSHO			LUPA			LAEL			LAOL			LWTS			LWPS			LFRA			LIFD			LHPS			LHTS			RSHO			RUPA			RAEL			RAOL			RWTS			RWPS			RFRA			RIFD			RHTS			RHPS			RBHD			LFHD			RFHD			LBHD			LHIP			RHIP			RASI			LASI			LKNE			LTHI			LANK			LTIP			LTOE			LMT1			LMT5			LHEE			RKNE			RTHI			RANK			RTIP			RTOE			RMT1			RMT5			RHEE			
		X1	Y1	Z1	X2	Y2	Z2	X3	Y3	Z3	X4	Y4	Z4	X5	Y5	Z5	X6	Y6	Z6	X7	Y7	Z7	X8	Y8	Z8	X9	Y9	Z9	X10	Y10	Z10	X11	Y11	Z11	X12	Y12	Z12	X13	Y13	Z13	X14	Y14	Z14	X15	Y15	Z15	X16	Y16	Z16	X17	Y17	Z17	X18	Y18	Z18	X19	Y19	Z19	X20	Y20	Z20	X21	Y21	Z21	X22	Y22	Z22	X23	Y23	Z23	X24	Y24	Z24	X25	Y25	Z25	X26	Y26	Z26	X27	Y27	Z27	X28	Y28	Z28	X29	Y29	Z29	X30	Y30	Z30	X31	Y31	Z31	X32	Y32	Z32	X33	Y33	Z33	X34	Y34	Z34	X35	Y35	Z35	X36	Y36	Z36	X37	Y37	Z37	X38	Y38	Z38	X39	Y39	Z39	X40	Y40	Z40	X41	Y41	Z41	X42	Y42	Z42	X43	Y43	Z43	X44	Y44	Z44	X45	Y45	Z45	X46	Y46	Z46	X47	Y47	Z47	X48	Y48	Z48	X49	Y49	Z49	X50	Y50	Z50	X51	Y51	Z51	X52	Y52	Z52	X53	Y53	Z53	

89	0.88	817.5266723632812	1054.6015625	168.4742126464844	826.901123046875	1050.54443359375	44.50639343261719	824.3513793945312	1088.892211914062	108.3566284179688	1077.808227539062	1299.474243164062	111.4270935058594	788.7825927734375	1246.03515625	98.63068389892578	848.4963989257812	1517.256469726562	85.58763885498047	1048.483276367188	1412.319213867188	100.1251678466797	778.3794555664062	1342.815063476562	193.246337890625	846.4546508789062	1489.400756835938	-14.46341705322266	927.4964599609375	1475.787231445312	-89.24160766601562	903.4286499023438	1341.84326171875	-162.175048828125	928.0289306640625	1122.47607421875	-174.3237762451172	867.83056640625	1109.504516601562	-110.2497940063477	1036.912475585938	896.4161376953125	-114.0372924804688	964.576416015625	870.477783203125	-168.1304779052734	946.7803344726562	1012.014465332031	-181.3509216308594	1049.767700195312	711.6771240234375	-80.94667053222656	986.45947265625	801.6683349609375	-157.7553100585938	1052.926391601562	818.175048828125	-129.0088653564453	906.0394287109375	1496.453247070312	271.1752319335938	885.0267944335938	1429.33984375	340.4270324707031	880.4133911132812	1139.314331054688	394.4574279785156	872.4379272460938	1133.996826171875	298.7188110351562	1025.75390625	916.5220947265625	365.4812316894531	955.7484130859375	897.5792236328125	417.2769775390625	909.275146484375	1067.566040039062	410.97021484375	1045.083862304688	731.7559204101562	337.1915893554688	1055.936645507812	825.6908569335938	369.7919311523438	986.3491821289062	815.1962890625	410.7138061523438	904.1505737304688	1684.190063476562	164.8904876708984	1064.45458984375	1725.228637695312	23.20359802246094	1071.685913085938	1728.817626953125	153.0467224121094	887.3853149414062	1688.17578125	28.90329360961914	939.1863403320312	987.3977661132812	-66.62941741943359	969.117919921875	1015.043518066406	298.8756408691406	1051.489501953125	1041.82275390625	246.5662231445312	1057.190063476562	1028.9150390625	-12.62049961090088	938.419921875	492.5242614746094	-27.38091850280762	950.2220458984375	634.1214599609375	-56.95991897583008	835.4047241210938	39.60001373291016	-29.5462589263916	889.4268188476562	272.1156921386719	-41.72289657592773	1055.237670898438	36.66318511962891	-18.11386299133301	1008.419494628906	38.12867736816406	33.19508361816406	940.7101440429688	31.66073036193848	-76.00176239013672	789.4781494140625	38.29035949707031	42.95659255981445	965.2869873046875	514.642578125	278.1342163085938	1017.009948730469	780.2173461914062	311.5079040527344	861.7807006835938	37.58798980712891	277.9494018554688	968.0143432617188	396.7703857421875	258.2218017578125	1085.25439453125	39.62156677246094	237.1894683837891	1027.191040039062	37.46642303466797	194.2399749755859	975.4216918945312	34.50664901733398	310.4792785644531	808.3565673828125	37.26455307006836	210.94384765625	
90	0.89	817.5912475585938	1054.615234375	168.5346221923828	826.9603881835938	1050.537963867188	44.58274459838867	824.3629150390625	1088.882446289062	108.4284515380859	1077.831909179688	1299.467895507812	111.4543762207031	788.7821044921875	1246.032348632812	98.70195007324219	848.527587890625	1517.254028320312	85.65687561035156	1048.500732421875	1412.318237304688	100.148551940918	778.452880859375	1342.777954101562	193.3246917724609	846.4330444335938	1489.375366210938	-14.36699104309082	927.448486328125	1475.7646484375	-89.15544128417969	903.375	1341.837280273438	-162.1167449951172	927.935302734375	1122.43896484375	-174.2006988525391	867.733642578125	1109.52197265625	-110.1295013427734	1036.800537109375	896.4003295898438	-113.8916625976562	964.4243774414062	870.4605102539062	-167.9624176025391	946.6863403320312	1012.019897460938	-181.2263946533203	1049.587890625	711.6705322265625	-80.79308319091797	986.2960815429688	801.643798828125	-157.6361389160156	1052.79345703125	818.1824340820312	-128.8673858642578	906.1124877929688	1496.456665039062	271.2392578125	885.1065673828125	1429.347534179688	340.4951477050781	880.5130615234375	1139.328369140625	394.5704345703125	872.4903564453125	1134.022583007812	298.8313903808594	1025.854614257812	916.533447265625	365.6098327636719	955.8491821289062	897.601318359375	417.4192504882812	909.3799438476562	1067.589233398438	411.0913391113281	1045.196166992188	731.7875366210938	337.3293151855469	1056.05126953125	825.666015625	369.9313049316406	986.4595947265625	815.2109985351562	410.8619995117188	904.2018432617188	1684.18896484375	164.9488983154297	1064.509887695312	1725.221801757812	23.25931549072266	1071.771606445312	1728.76416015625	153.1271057128906	887.4119873046875	1688.222778320312	28.98786544799805	939.2133178710938	987.3905029296875	-66.58420562744141	969.1776123046875	1015.033752441406	298.9092102050781	1051.538696289062	1041.80859375	246.5849761962891	1057.189331054688	1028.917358398438	-12.59442901611328	938.4190063476562	492.5364685058594	-27.35755920410156	950.202880859375	634.11328125	-56.93041610717773	835.4132690429688	39.61005401611328	-29.54362106323242	889.4151611328125	272.1230773925781	-41.70965194702148	1055.236572265625	36.66573715209961	-18.11323165893555	1008.418884277344	38.12951278686523	33.19736480712891	940.7097778320312	31.6578540802002	-76.00142669677734	789.472412109375	38.29547119140625	42.95844650268555	965.3165893554688	514.6345825195312	278.1515197753906	1017.032958984375	780.1851806640625	311.5490112304688	861.7837524414062	37.58393096923828	277.954833984375	968.0239868164062	396.7654724121094	258.2266845703125	1085.253540039062	39.62431716918945	237.1871795654297	1027.19140625	37.46523666381836	194.2389526367188	975.4227294921875	34.5060920715332	310.4781799316406	808.3535766601562	37.26226043701172	210.9485321044922	
91	0.9	817.660400390625	1054.619384765625	168.5951843261719	827.0234375	1050.531616210938	44.66011810302734	824.3715209960938	1088.8720703125	108.4990081787109	1077.859497070312	1299.462768554688	111.4797134399414	788.7960205078125	1246.028198242188	98.77531433105469	848.55908203125	1517.249389648438	85.72695159912109	1048.520385742188	1412.317138671875	100.1705093383789	778.5294189453125	1342.7529296875	193.4120788574219	846.4113159179688	1489.347412109375	-14.26344680786133	927.404541015625	1475.744995117188	-89.07471466064453	903.3261108398438	1341.83544921875	-162.0600128173828	927.8394775390625	1122.40087890625	-174.0762329101562	867.6389770507812	1109.545654296875	-110.0129470825195	1036.692626953125	896.3837890625	-113.7491149902344	964.2842407226562	870.4445190429688	-167.8102874755859	946.592041015625	1012.018493652344	-181.1062164306641	1049.425537109375	711.6654663085938	-80.63465881347656	986.1264038085938	801.6001586914062	-157.4935760498047	1052.673706054688	818.1889038085938	-128.7395477294922	906.1909790039062	1496.4609375	271.3038940429688	885.1915893554688	1429.356811523438	340.564453125	880.6128540039062	1139.34130859375	394.68115234375	872.5545043945312	1134.04443359375	298.9450988769531	1025.953491210938	916.5440673828125	365.7333068847656	955.9534301757812	897.624267578125	417.5595397949219	909.479736328125	1067.613037109375	411.2068481445312	1045.313232421875	731.82177734375	337.471923828125	1056.167724609375	825.6390380859375	370.0677185058594	986.5741577148438	815.2271118164062	411.0093383789062	904.2444458007812	1684.18603515625	165.0039520263672	1064.574462890625	1725.220581054688	23.33187866210938	1071.843994140625	1728.713500976562	153.2213439941406	887.4509887695312	1688.265747070312	29.06100463867188	939.2394409179688	987.3828735351562	-66.541015625	969.24365234375	1015.023620605469	298.9409484863281	1051.591552734375	1041.792602539062	246.6011199951172	1057.190673828125	1028.917358398438	-12.57286930084229	938.4130249023438	492.5487670898438	-27.33578491210938	950.1761474609375	634.1062622070312	-56.90191268920898	835.4222412109375	39.62228012084961	-29.54155921936035	889.4010620117188	272.1290283203125	-41.69672393798828	1055.235229492188	36.6688117980957	-18.11275863647461	1008.418273925781	38.13033676147461	33.19972991943359	940.71044921875	31.65657806396484	-76.00232696533203	789.46337890625	38.29880905151367	42.96006393432617	965.3411254882812	514.6270751953125	278.1678771972656	1017.061340332031	780.1535034179688	311.5831909179688	861.7870483398438	37.58009719848633	277.9593505859375	968.0304565429688	396.7602844238281	258.2308654785156	1085.252197265625	39.62498474121094	237.1863708496094	1027.19189453125	37.46400451660156	194.2371826171875	975.4242553710938	34.50589752197266	310.4768676757812	808.3500366210938	37.26078414916992	210.9538116455078	
92	0.91	817.73486328125	1054.614501953125	168.6565856933594	827.0894165039062	1050.525390625	44.73700332641602	824.382568359375	1088.863525390625	108.5674514770508	1077.890991210938	1299.45849609375	111.5035247802734	788.823974609375	1246.023193359375	98.85187530517578	848.5914916992188	1517.243286132812	85.79750061035156	1048.541870117188	1412.316284179688	100.1912536621094	778.6092529296875	1342.734619140625	193.5058898925781	846.390869140625	1489.317016601562	-14.15386486053467	927.36572265625	1475.727905273438	-89.00072479248047	903.281494140625	1341.836547851562	-162.0033264160156	927.7417602539062	1122.361938476562	-173.9502563476562	867.548095703125	1109.573120117188	-109.900146484375	1036.58935546875	896.365478515625	-113.6113967895508	964.1555786132812	870.426513671875	-167.6739044189453	946.4968872070312	1012.008605957031	-180.9885559082031	1049.280395507812	711.6632690429688	-80.46884918212891	985.953369140625	801.538818359375	-157.3276214599609	1052.566650390625	818.1922607421875	-128.6249542236328	906.2736206054688	1496.465942382812	271.368896484375	885.2807006835938	1429.36669921875	340.6341552734375	880.7116088867188	1139.3525390625	394.7880554199219	872.6310424804688	1134.0615234375	299.0592041015625	1026.053100585938	916.553466796875	365.8511047363281	956.0608520507812	897.6469116210938	417.6968688964844	909.5755004882812	1067.63671875	411.3177795410156	1045.43359375	731.8576049804688	337.6165466308594	1056.287475585938	825.6127319335938	370.2013854980469	986.6925659179688	815.2439575195312	411.1535339355469	904.279052734375	1684.182006835938	165.0561828613281	1064.648071289062	1725.223510742188	23.42287635803223	1071.903442382812	1728.665649414062	153.3272247314453	887.5029907226562	1688.30517578125	29.12399864196777	939.263916015625	987.3751220703125	-66.49967193603516	969.3153076171875	1015.01318359375	298.9706115722656	1051.6484375	1041.775390625	246.6147308349609	1057.193603515625	1028.915161132812	-12.55475997924805	938.4031372070312	492.5603942871094	-27.31578636169434	950.1432495117188	634.10107421875	-56.87527084350586	835.4303588867188	39.63564300537109	-29.5401439666748	889.3845825195312	272.1330871582031	-41.68402481079102	1055.234008789062	36.67189788818359	-18.11249542236328	1008.418151855469	38.13085174560547	33.20108413696289	940.7119750976562	31.65738868713379	-76.00415802001953	789.4521484375	38.29988861083984	42.96139526367188	965.360595703125	514.62060546875	278.1836547851562	1017.096435546875	780.123779296875	311.6097412109375	861.7896728515625	37.57710266113281	277.96240234375	968.0349731445312	396.7545776367188	258.2360229492188	1085.250610351562	39.62443542480469	237.1859893798828	1027.192749023438	37.46244812011719	194.2342376708984	975.4260864257812	34.50601577758789	310.4754943847656	808.345458984375	37.26015853881836	210.9600067138672	
